<mxfile host="app.diagrams.net" modified="2024-02-11T19:49:24.714Z" agent="Mozilla/5.0 (Windows NT 10.0; Win64; x64) AppleWebKit/537.36 (KHTML, like Gecko) Chrome/121.0.0.0 Safari/537.36" etag="bjl38lntWLv2AIk6Lnfb" version="23.1.1" type="google">
  <diagram name="Page-1" id="Y8fvnBMBPo1teozD-hHa">
    <mxGraphModel grid="1" page="1" gridSize="10" guides="1" tooltips="1" connect="1" arrows="1" fold="1" pageScale="1" pageWidth="827" pageHeight="1169" math="0" shadow="0">
      <root>
        <mxCell id="0" />
        <mxCell id="1" parent="0" />
        <mxCell id="c1ZkTXCwSlhEwt3JloGz-2" value="Motor driver" style="swimlane;whiteSpace=wrap;html=1;" vertex="1" parent="1">
          <mxGeometry x="520" y="290" width="200" height="110" as="geometry" />
        </mxCell>
        <mxCell id="c1ZkTXCwSlhEwt3JloGz-74" value="12V" style="text;html=1;strokeColor=none;fillColor=none;align=center;verticalAlign=middle;whiteSpace=wrap;rounded=0;" vertex="1" parent="c1ZkTXCwSlhEwt3JloGz-2">
          <mxGeometry x="10" y="25" width="20" height="30" as="geometry" />
        </mxCell>
        <mxCell id="c1ZkTXCwSlhEwt3JloGz-80" value="CAN Bus + 5V" style="text;html=1;strokeColor=none;fillColor=none;align=center;verticalAlign=middle;whiteSpace=wrap;rounded=0;" vertex="1" parent="c1ZkTXCwSlhEwt3JloGz-2">
          <mxGeometry y="75" width="70" height="30" as="geometry" />
        </mxCell>
        <mxCell id="c1ZkTXCwSlhEwt3JloGz-3" value="Motor driver" style="swimlane;whiteSpace=wrap;html=1;" vertex="1" parent="1">
          <mxGeometry x="520" y="130" width="200" height="110" as="geometry" />
        </mxCell>
        <mxCell id="c1ZkTXCwSlhEwt3JloGz-73" value="12V" style="text;html=1;strokeColor=none;fillColor=none;align=center;verticalAlign=middle;whiteSpace=wrap;rounded=0;" vertex="1" parent="c1ZkTXCwSlhEwt3JloGz-3">
          <mxGeometry x="10" y="30" width="20" height="30" as="geometry" />
        </mxCell>
        <mxCell id="c1ZkTXCwSlhEwt3JloGz-79" value="CAN Bus + 5V" style="text;html=1;strokeColor=none;fillColor=none;align=center;verticalAlign=middle;whiteSpace=wrap;rounded=0;" vertex="1" parent="c1ZkTXCwSlhEwt3JloGz-3">
          <mxGeometry y="70" width="70" height="30" as="geometry" />
        </mxCell>
        <mxCell id="c1ZkTXCwSlhEwt3JloGz-4" value="Power supply" style="swimlane;whiteSpace=wrap;html=1;" vertex="1" parent="1">
          <mxGeometry x="-180" y="200" width="200" height="140" as="geometry" />
        </mxCell>
        <mxCell id="c1ZkTXCwSlhEwt3JloGz-87" value="12V" style="text;html=1;strokeColor=none;fillColor=none;align=center;verticalAlign=middle;whiteSpace=wrap;rounded=0;" vertex="1" parent="c1ZkTXCwSlhEwt3JloGz-4">
          <mxGeometry x="170" y="25" width="20" height="30" as="geometry" />
        </mxCell>
        <mxCell id="c1ZkTXCwSlhEwt3JloGz-97" value="7.4V" style="text;html=1;strokeColor=none;fillColor=none;align=center;verticalAlign=middle;whiteSpace=wrap;rounded=0;" vertex="1" parent="c1ZkTXCwSlhEwt3JloGz-4">
          <mxGeometry x="170" y="60" width="20" height="30" as="geometry" />
        </mxCell>
        <mxCell id="c1ZkTXCwSlhEwt3JloGz-98" value="5V" style="text;html=1;strokeColor=none;fillColor=none;align=center;verticalAlign=middle;whiteSpace=wrap;rounded=0;" vertex="1" parent="c1ZkTXCwSlhEwt3JloGz-4">
          <mxGeometry x="170" y="100" width="20" height="30" as="geometry" />
        </mxCell>
        <mxCell id="c1ZkTXCwSlhEwt3JloGz-99" value="6A" style="text;html=1;strokeColor=none;fillColor=none;align=center;verticalAlign=middle;whiteSpace=wrap;rounded=0;" vertex="1" parent="c1ZkTXCwSlhEwt3JloGz-4">
          <mxGeometry x="140" y="25" width="20" height="30" as="geometry" />
        </mxCell>
        <mxCell id="c1ZkTXCwSlhEwt3JloGz-100" value="6A" style="text;html=1;strokeColor=none;fillColor=none;align=center;verticalAlign=middle;whiteSpace=wrap;rounded=0;" vertex="1" parent="c1ZkTXCwSlhEwt3JloGz-4">
          <mxGeometry x="140" y="100" width="20" height="30" as="geometry" />
        </mxCell>
        <mxCell id="c1ZkTXCwSlhEwt3JloGz-101" value="6A" style="text;html=1;strokeColor=none;fillColor=none;align=center;verticalAlign=middle;whiteSpace=wrap;rounded=0;" vertex="1" parent="c1ZkTXCwSlhEwt3JloGz-4">
          <mxGeometry x="140" y="60" width="20" height="30" as="geometry" />
        </mxCell>
        <mxCell id="c1ZkTXCwSlhEwt3JloGz-5" value="Battery" style="swimlane;whiteSpace=wrap;html=1;" vertex="1" parent="1">
          <mxGeometry x="-490" y="180" width="200" height="100" as="geometry" />
        </mxCell>
        <mxCell id="c1ZkTXCwSlhEwt3JloGz-86" value="5100mAh&lt;br&gt;14.8V" style="text;html=1;align=center;verticalAlign=middle;resizable=0;points=[];autosize=1;strokeColor=none;fillColor=none;" vertex="1" parent="c1ZkTXCwSlhEwt3JloGz-5">
          <mxGeometry x="60" y="35" width="70" height="40" as="geometry" />
        </mxCell>
        <mxCell id="c1ZkTXCwSlhEwt3JloGz-19" style="edgeStyle=orthogonalEdgeStyle;rounded=0;orthogonalLoop=1;jettySize=auto;html=1;exitX=1;exitY=0.5;exitDx=0;exitDy=0;entryX=0;entryY=0.5;entryDx=0;entryDy=0;" edge="1" parent="1" source="c1ZkTXCwSlhEwt3JloGz-6" target="c1ZkTXCwSlhEwt3JloGz-13">
          <mxGeometry relative="1" as="geometry">
            <Array as="points">
              <mxPoint x="410" y="280" />
              <mxPoint x="410" y="330" />
            </Array>
          </mxGeometry>
        </mxCell>
        <mxCell id="c1ZkTXCwSlhEwt3JloGz-6" value="" style="whiteSpace=wrap;html=1;aspect=fixed;fillColor=#FF0000;" vertex="1" parent="1">
          <mxGeometry x="240" y="270" width="20" height="20" as="geometry" />
        </mxCell>
        <mxCell id="c1ZkTXCwSlhEwt3JloGz-18" style="edgeStyle=orthogonalEdgeStyle;rounded=0;orthogonalLoop=1;jettySize=auto;html=1;exitX=1;exitY=0.5;exitDx=0;exitDy=0;entryX=0;entryY=0.5;entryDx=0;entryDy=0;" edge="1" parent="1" source="c1ZkTXCwSlhEwt3JloGz-7" target="c1ZkTXCwSlhEwt3JloGz-12">
          <mxGeometry relative="1" as="geometry" />
        </mxCell>
        <mxCell id="c1ZkTXCwSlhEwt3JloGz-7" value="" style="whiteSpace=wrap;html=1;aspect=fixed;fillColor=#FF0000;" vertex="1" parent="1">
          <mxGeometry x="240" y="240" width="20" height="20" as="geometry" />
        </mxCell>
        <mxCell id="c1ZkTXCwSlhEwt3JloGz-8" value="" style="whiteSpace=wrap;html=1;aspect=fixed;fillColor=#00FF00;" vertex="1" parent="1">
          <mxGeometry x="500" y="370" width="20" height="20" as="geometry" />
        </mxCell>
        <mxCell id="c1ZkTXCwSlhEwt3JloGz-11" value="" style="whiteSpace=wrap;html=1;aspect=fixed;fillColor=#00FF00;" vertex="1" parent="1">
          <mxGeometry x="500" y="210" width="20" height="20" as="geometry" />
        </mxCell>
        <mxCell id="c1ZkTXCwSlhEwt3JloGz-12" value="" style="whiteSpace=wrap;html=1;aspect=fixed;fillColor=#FF0000;" vertex="1" parent="1">
          <mxGeometry x="500" y="160" width="20" height="20" as="geometry" />
        </mxCell>
        <mxCell id="c1ZkTXCwSlhEwt3JloGz-13" value="" style="whiteSpace=wrap;html=1;aspect=fixed;fillColor=#FF0000;" vertex="1" parent="1">
          <mxGeometry x="500" y="320" width="20" height="20" as="geometry" />
        </mxCell>
        <mxCell id="c1ZkTXCwSlhEwt3JloGz-17" style="edgeStyle=orthogonalEdgeStyle;rounded=0;orthogonalLoop=1;jettySize=auto;html=1;exitX=1;exitY=0.5;exitDx=0;exitDy=0;entryX=0;entryY=0.5;entryDx=0;entryDy=0;" edge="1" parent="1" source="c1ZkTXCwSlhEwt3JloGz-14" target="c1ZkTXCwSlhEwt3JloGz-15">
          <mxGeometry relative="1" as="geometry" />
        </mxCell>
        <mxCell id="c1ZkTXCwSlhEwt3JloGz-14" value="" style="whiteSpace=wrap;html=1;aspect=fixed;fillColor=#FF8000;" vertex="1" parent="1">
          <mxGeometry x="-290" y="230" width="20" height="20" as="geometry" />
        </mxCell>
        <mxCell id="c1ZkTXCwSlhEwt3JloGz-15" value="" style="whiteSpace=wrap;html=1;aspect=fixed;fillColor=#FF8000;" vertex="1" parent="1">
          <mxGeometry x="-200" y="230" width="20" height="20" as="geometry" />
        </mxCell>
        <mxCell id="c1ZkTXCwSlhEwt3JloGz-20" value="" style="endArrow=classic;startArrow=classic;html=1;rounded=0;entryX=0;entryY=0.5;entryDx=0;entryDy=0;exitX=1;exitY=0.5;exitDx=0;exitDy=0;" edge="1" parent="1" source="c1ZkTXCwSlhEwt3JloGz-9" target="c1ZkTXCwSlhEwt3JloGz-8">
          <mxGeometry width="50" height="50" relative="1" as="geometry">
            <mxPoint x="350" y="405" as="sourcePoint" />
            <mxPoint x="400" y="355" as="targetPoint" />
            <Array as="points">
              <mxPoint x="340" y="310" />
              <mxPoint x="340" y="380" />
            </Array>
          </mxGeometry>
        </mxCell>
        <mxCell id="c1ZkTXCwSlhEwt3JloGz-22" value="" style="endArrow=classic;startArrow=classic;html=1;rounded=0;entryX=0;entryY=0.5;entryDx=0;entryDy=0;exitX=1;exitY=0.5;exitDx=0;exitDy=0;" edge="1" parent="1" source="c1ZkTXCwSlhEwt3JloGz-9" target="c1ZkTXCwSlhEwt3JloGz-11">
          <mxGeometry width="50" height="50" relative="1" as="geometry">
            <mxPoint x="300" y="320" as="sourcePoint" />
            <mxPoint x="440" y="250" as="targetPoint" />
            <Array as="points">
              <mxPoint x="450" y="310" />
              <mxPoint x="450" y="220" />
            </Array>
          </mxGeometry>
        </mxCell>
        <mxCell id="c1ZkTXCwSlhEwt3JloGz-23" value="Robotic arm and chain" style="swimlane;whiteSpace=wrap;html=1;" vertex="1" parent="1">
          <mxGeometry x="520" y="470" width="200" height="140" as="geometry" />
        </mxCell>
        <mxCell id="c1ZkTXCwSlhEwt3JloGz-75" value="7.4V" style="text;html=1;strokeColor=none;fillColor=none;align=center;verticalAlign=middle;whiteSpace=wrap;rounded=0;" vertex="1" parent="c1ZkTXCwSlhEwt3JloGz-23">
          <mxGeometry x="10" y="35" width="20" height="30" as="geometry" />
        </mxCell>
        <mxCell id="c1ZkTXCwSlhEwt3JloGz-82" value="CAN Bus + 5V" style="text;html=1;strokeColor=none;fillColor=none;align=center;verticalAlign=middle;whiteSpace=wrap;rounded=0;" vertex="1" parent="c1ZkTXCwSlhEwt3JloGz-23">
          <mxGeometry y="95" width="70" height="30" as="geometry" />
        </mxCell>
        <mxCell id="c1ZkTXCwSlhEwt3JloGz-24" value="Sensor Data Processing" style="swimlane;whiteSpace=wrap;html=1;" vertex="1" parent="1">
          <mxGeometry x="520" y="660" width="200" height="140" as="geometry" />
        </mxCell>
        <mxCell id="c1ZkTXCwSlhEwt3JloGz-78" value="?" style="text;html=1;strokeColor=none;fillColor=none;align=center;verticalAlign=middle;whiteSpace=wrap;rounded=0;" vertex="1" parent="c1ZkTXCwSlhEwt3JloGz-24">
          <mxGeometry x="10" y="35" width="20" height="30" as="geometry" />
        </mxCell>
        <mxCell id="c1ZkTXCwSlhEwt3JloGz-83" value="CAN Bus + 5V" style="text;html=1;strokeColor=none;fillColor=none;align=center;verticalAlign=middle;whiteSpace=wrap;rounded=0;" vertex="1" parent="c1ZkTXCwSlhEwt3JloGz-24">
          <mxGeometry y="90" width="70" height="30" as="geometry" />
        </mxCell>
        <mxCell id="c1ZkTXCwSlhEwt3JloGz-25" value="CC Motor" style="swimlane;whiteSpace=wrap;html=1;" vertex="1" parent="1">
          <mxGeometry x="850" y="70" width="100" height="110" as="geometry" />
        </mxCell>
        <mxCell id="c1ZkTXCwSlhEwt3JloGz-26" value="CC Motor" style="swimlane;whiteSpace=wrap;html=1;" vertex="1" parent="1">
          <mxGeometry x="850" y="200" width="100" height="110" as="geometry" />
        </mxCell>
        <mxCell id="c1ZkTXCwSlhEwt3JloGz-32" style="edgeStyle=orthogonalEdgeStyle;rounded=0;orthogonalLoop=1;jettySize=auto;html=1;exitX=1;exitY=0.5;exitDx=0;exitDy=0;entryX=0;entryY=0.5;entryDx=0;entryDy=0;" edge="1" parent="1" source="c1ZkTXCwSlhEwt3JloGz-27" target="c1ZkTXCwSlhEwt3JloGz-31">
          <mxGeometry relative="1" as="geometry" />
        </mxCell>
        <mxCell id="c1ZkTXCwSlhEwt3JloGz-27" value="" style="whiteSpace=wrap;html=1;aspect=fixed;fillColor=#00CCCC;" vertex="1" parent="1">
          <mxGeometry x="720" y="160" width="20" height="20" as="geometry" />
        </mxCell>
        <mxCell id="c1ZkTXCwSlhEwt3JloGz-29" style="edgeStyle=orthogonalEdgeStyle;rounded=0;orthogonalLoop=1;jettySize=auto;html=1;exitX=1;exitY=0.5;exitDx=0;exitDy=0;entryX=0;entryY=0.5;entryDx=0;entryDy=0;" edge="1" parent="1" source="c1ZkTXCwSlhEwt3JloGz-28" target="c1ZkTXCwSlhEwt3JloGz-30">
          <mxGeometry relative="1" as="geometry">
            <mxPoint x="760" y="260" as="targetPoint" />
          </mxGeometry>
        </mxCell>
        <mxCell id="c1ZkTXCwSlhEwt3JloGz-28" value="" style="whiteSpace=wrap;html=1;aspect=fixed;fillColor=#00CCCC;" vertex="1" parent="1">
          <mxGeometry x="720" y="320" width="20" height="20" as="geometry" />
        </mxCell>
        <mxCell id="c1ZkTXCwSlhEwt3JloGz-30" value="" style="whiteSpace=wrap;html=1;aspect=fixed;fillColor=#00CCCC;" vertex="1" parent="1">
          <mxGeometry x="830" y="250" width="20" height="20" as="geometry" />
        </mxCell>
        <mxCell id="c1ZkTXCwSlhEwt3JloGz-31" value="" style="whiteSpace=wrap;html=1;aspect=fixed;fillColor=#00CCCC;" vertex="1" parent="1">
          <mxGeometry x="830" y="120" width="20" height="20" as="geometry" />
        </mxCell>
        <mxCell id="c1ZkTXCwSlhEwt3JloGz-33" value="Raspberry Pi" style="swimlane;whiteSpace=wrap;html=1;" vertex="1" parent="1">
          <mxGeometry x="90" y="500" width="200" height="140" as="geometry" />
        </mxCell>
        <mxCell id="c1ZkTXCwSlhEwt3JloGz-81" value="5V" style="text;html=1;strokeColor=none;fillColor=none;align=center;verticalAlign=middle;whiteSpace=wrap;rounded=0;" vertex="1" parent="c1ZkTXCwSlhEwt3JloGz-33">
          <mxGeometry x="10" y="40" width="20" height="30" as="geometry" />
        </mxCell>
        <mxCell id="c1ZkTXCwSlhEwt3JloGz-85" value="CAN Bus" style="text;html=1;strokeColor=none;fillColor=none;align=center;verticalAlign=middle;whiteSpace=wrap;rounded=0;" vertex="1" parent="c1ZkTXCwSlhEwt3JloGz-33">
          <mxGeometry x="130" y="35" width="70" height="30" as="geometry" />
        </mxCell>
        <mxCell id="c1ZkTXCwSlhEwt3JloGz-36" style="edgeStyle=orthogonalEdgeStyle;rounded=0;orthogonalLoop=1;jettySize=auto;html=1;exitX=0.5;exitY=1;exitDx=0;exitDy=0;entryX=0.5;entryY=0;entryDx=0;entryDy=0;" edge="1" parent="1" source="c1ZkTXCwSlhEwt3JloGz-34" target="c1ZkTXCwSlhEwt3JloGz-35">
          <mxGeometry relative="1" as="geometry" />
        </mxCell>
        <mxCell id="c1ZkTXCwSlhEwt3JloGz-34" value="" style="whiteSpace=wrap;html=1;aspect=fixed;fillColor=#FF0000;direction=north;" vertex="1" parent="1">
          <mxGeometry x="240" y="390" width="20" height="20" as="geometry" />
        </mxCell>
        <mxCell id="c1ZkTXCwSlhEwt3JloGz-35" value="" style="whiteSpace=wrap;html=1;aspect=fixed;fillColor=#FF0000;direction=north;" vertex="1" parent="1">
          <mxGeometry x="70" y="540" width="20" height="20" as="geometry" />
        </mxCell>
        <mxCell id="c1ZkTXCwSlhEwt3JloGz-37" value="Multiplexer" style="swimlane;whiteSpace=wrap;html=1;" vertex="1" parent="1">
          <mxGeometry x="120" y="215" width="120" height="205" as="geometry" />
        </mxCell>
        <mxCell id="c1ZkTXCwSlhEwt3JloGz-84" value="CAN Bus + 5V" style="text;html=1;strokeColor=none;fillColor=none;align=center;verticalAlign=middle;whiteSpace=wrap;rounded=0;" vertex="1" parent="c1ZkTXCwSlhEwt3JloGz-37">
          <mxGeometry x="50" y="85" width="70" height="30" as="geometry" />
        </mxCell>
        <mxCell id="c1ZkTXCwSlhEwt3JloGz-41" style="edgeStyle=orthogonalEdgeStyle;rounded=0;orthogonalLoop=1;jettySize=auto;html=1;exitX=1;exitY=0.5;exitDx=0;exitDy=0;" edge="1" parent="1" source="c1ZkTXCwSlhEwt3JloGz-38" target="c1ZkTXCwSlhEwt3JloGz-39">
          <mxGeometry relative="1" as="geometry" />
        </mxCell>
        <mxCell id="c1ZkTXCwSlhEwt3JloGz-38" value="" style="whiteSpace=wrap;html=1;aspect=fixed;fillColor=#FF0000;" vertex="1" parent="1">
          <mxGeometry x="20" y="230" width="20" height="20" as="geometry" />
        </mxCell>
        <mxCell id="c1ZkTXCwSlhEwt3JloGz-39" value="" style="whiteSpace=wrap;html=1;aspect=fixed;fillColor=#FF0000;" vertex="1" parent="1">
          <mxGeometry x="100" y="245" width="20" height="20" as="geometry" />
        </mxCell>
        <mxCell id="c1ZkTXCwSlhEwt3JloGz-9" value="" style="whiteSpace=wrap;html=1;aspect=fixed;fillColor=#00FF00;" vertex="1" parent="1">
          <mxGeometry x="240" y="300" width="20" height="20" as="geometry" />
        </mxCell>
        <mxCell id="c1ZkTXCwSlhEwt3JloGz-44" value="" style="whiteSpace=wrap;html=1;aspect=fixed;fillColor=#00FF00;" vertex="1" parent="1">
          <mxGeometry x="290" y="540" width="20" height="20" as="geometry" />
        </mxCell>
        <mxCell id="c1ZkTXCwSlhEwt3JloGz-46" value="" style="endArrow=classic;startArrow=classic;html=1;rounded=0;entryX=1;entryY=0.5;entryDx=0;entryDy=0;exitX=1;exitY=0.5;exitDx=0;exitDy=0;" edge="1" parent="1" source="c1ZkTXCwSlhEwt3JloGz-44" target="c1ZkTXCwSlhEwt3JloGz-9">
          <mxGeometry width="50" height="50" relative="1" as="geometry">
            <mxPoint x="200" y="490" as="sourcePoint" />
            <mxPoint x="250" y="440" as="targetPoint" />
            <Array as="points">
              <mxPoint x="340" y="550" />
              <mxPoint x="340" y="310" />
            </Array>
          </mxGeometry>
        </mxCell>
        <mxCell id="c1ZkTXCwSlhEwt3JloGz-47" value="Sensors" style="swimlane;whiteSpace=wrap;html=1;" vertex="1" parent="1">
          <mxGeometry x="850" y="710" width="100" height="110" as="geometry" />
        </mxCell>
        <mxCell id="c1ZkTXCwSlhEwt3JloGz-51" style="edgeStyle=orthogonalEdgeStyle;rounded=0;orthogonalLoop=1;jettySize=auto;html=1;exitX=1;exitY=0.5;exitDx=0;exitDy=0;entryX=0;entryY=0.5;entryDx=0;entryDy=0;" edge="1" parent="1" source="c1ZkTXCwSlhEwt3JloGz-48" target="c1ZkTXCwSlhEwt3JloGz-49">
          <mxGeometry relative="1" as="geometry" />
        </mxCell>
        <mxCell id="c1ZkTXCwSlhEwt3JloGz-48" value="" style="whiteSpace=wrap;html=1;aspect=fixed;fillColor=#00CCCC;" vertex="1" parent="1">
          <mxGeometry x="720" y="730" width="20" height="20" as="geometry" />
        </mxCell>
        <mxCell id="c1ZkTXCwSlhEwt3JloGz-49" value="" style="whiteSpace=wrap;html=1;aspect=fixed;fillColor=#00CCCC;" vertex="1" parent="1">
          <mxGeometry x="830" y="760" width="20" height="20" as="geometry" />
        </mxCell>
        <mxCell id="c1ZkTXCwSlhEwt3JloGz-52" value="Chain" style="swimlane;whiteSpace=wrap;html=1;" vertex="1" parent="1">
          <mxGeometry x="840" y="420" width="100" height="110" as="geometry" />
        </mxCell>
        <mxCell id="c1ZkTXCwSlhEwt3JloGz-53" value="Robotic arms" style="swimlane;whiteSpace=wrap;html=1;" vertex="1" parent="1">
          <mxGeometry x="840" y="540" width="100" height="110" as="geometry" />
        </mxCell>
        <mxCell id="c1ZkTXCwSlhEwt3JloGz-58" style="edgeStyle=orthogonalEdgeStyle;rounded=0;orthogonalLoop=1;jettySize=auto;html=1;entryX=0;entryY=0.5;entryDx=0;entryDy=0;" edge="1" parent="1" source="c1ZkTXCwSlhEwt3JloGz-54" target="c1ZkTXCwSlhEwt3JloGz-57">
          <mxGeometry relative="1" as="geometry" />
        </mxCell>
        <mxCell id="c1ZkTXCwSlhEwt3JloGz-54" value="" style="whiteSpace=wrap;html=1;aspect=fixed;fillColor=#00CCCC;" vertex="1" parent="1">
          <mxGeometry x="720" y="510" width="20" height="20" as="geometry" />
        </mxCell>
        <mxCell id="c1ZkTXCwSlhEwt3JloGz-59" value="" style="edgeStyle=orthogonalEdgeStyle;rounded=0;orthogonalLoop=1;jettySize=auto;html=1;" edge="1" parent="1" source="c1ZkTXCwSlhEwt3JloGz-55" target="c1ZkTXCwSlhEwt3JloGz-56">
          <mxGeometry relative="1" as="geometry" />
        </mxCell>
        <mxCell id="c1ZkTXCwSlhEwt3JloGz-55" value="" style="whiteSpace=wrap;html=1;aspect=fixed;fillColor=#00CCCC;" vertex="1" parent="1">
          <mxGeometry x="720" y="575" width="20" height="20" as="geometry" />
        </mxCell>
        <mxCell id="c1ZkTXCwSlhEwt3JloGz-56" value="" style="whiteSpace=wrap;html=1;aspect=fixed;fillColor=#00CCCC;" vertex="1" parent="1">
          <mxGeometry x="820" y="590" width="20" height="20" as="geometry" />
        </mxCell>
        <mxCell id="c1ZkTXCwSlhEwt3JloGz-57" value="" style="whiteSpace=wrap;html=1;aspect=fixed;fillColor=#00CCCC;" vertex="1" parent="1">
          <mxGeometry x="820" y="470" width="20" height="20" as="geometry" />
        </mxCell>
        <mxCell id="c1ZkTXCwSlhEwt3JloGz-65" style="edgeStyle=orthogonalEdgeStyle;rounded=0;orthogonalLoop=1;jettySize=auto;html=1;exitX=1;exitY=0.5;exitDx=0;exitDy=0;entryX=0;entryY=0.5;entryDx=0;entryDy=0;strokeColor=default;" edge="1" parent="1" source="c1ZkTXCwSlhEwt3JloGz-60" target="c1ZkTXCwSlhEwt3JloGz-64">
          <mxGeometry relative="1" as="geometry" />
        </mxCell>
        <mxCell id="c1ZkTXCwSlhEwt3JloGz-60" value="" style="whiteSpace=wrap;html=1;aspect=fixed;fillColor=#FF0000;" vertex="1" parent="1">
          <mxGeometry x="240" y="330" width="20" height="20" as="geometry" />
        </mxCell>
        <mxCell id="c1ZkTXCwSlhEwt3JloGz-64" value="" style="whiteSpace=wrap;html=1;aspect=fixed;fillColor=#FF0000;" vertex="1" parent="1">
          <mxGeometry x="500" y="510" width="20" height="20" as="geometry" />
        </mxCell>
        <mxCell id="c1ZkTXCwSlhEwt3JloGz-69" value="" style="endArrow=classic;startArrow=classic;html=1;rounded=0;entryX=0;entryY=0.5;entryDx=0;entryDy=0;" edge="1" parent="1" target="c1ZkTXCwSlhEwt3JloGz-68">
          <mxGeometry width="50" height="50" relative="1" as="geometry">
            <mxPoint x="260" y="310" as="sourcePoint" />
            <mxPoint x="450" y="500" as="targetPoint" />
            <Array as="points">
              <mxPoint x="340" y="310" />
              <mxPoint x="340" y="765" />
            </Array>
          </mxGeometry>
        </mxCell>
        <mxCell id="c1ZkTXCwSlhEwt3JloGz-70" value="" style="whiteSpace=wrap;html=1;aspect=fixed;fillColor=#FF0000;" vertex="1" parent="1">
          <mxGeometry x="500" y="700" width="20" height="20" as="geometry" />
        </mxCell>
        <mxCell id="c1ZkTXCwSlhEwt3JloGz-68" value="" style="whiteSpace=wrap;html=1;aspect=fixed;fillColor=#00FF00;" vertex="1" parent="1">
          <mxGeometry x="500" y="755" width="20" height="20" as="geometry" />
        </mxCell>
        <mxCell id="c1ZkTXCwSlhEwt3JloGz-72" style="edgeStyle=orthogonalEdgeStyle;rounded=0;orthogonalLoop=1;jettySize=auto;html=1;entryX=0;entryY=0.5;entryDx=0;entryDy=0;" edge="1" parent="1" source="c1ZkTXCwSlhEwt3JloGz-71" target="c1ZkTXCwSlhEwt3JloGz-70">
          <mxGeometry relative="1" as="geometry" />
        </mxCell>
        <mxCell id="c1ZkTXCwSlhEwt3JloGz-71" value="" style="whiteSpace=wrap;html=1;aspect=fixed;fillColor=#FF0000;" vertex="1" parent="1">
          <mxGeometry x="240" y="360" width="20" height="20" as="geometry" />
        </mxCell>
        <mxCell id="c1ZkTXCwSlhEwt3JloGz-76" value="" style="whiteSpace=wrap;html=1;aspect=fixed;fillColor=#00FF00;" vertex="1" parent="1">
          <mxGeometry x="500" y="570" width="20" height="20" as="geometry" />
        </mxCell>
        <mxCell id="c1ZkTXCwSlhEwt3JloGz-77" value="" style="endArrow=classic;html=1;rounded=0;entryX=0;entryY=0.5;entryDx=0;entryDy=0;" edge="1" parent="1" target="c1ZkTXCwSlhEwt3JloGz-76">
          <mxGeometry width="50" height="50" relative="1" as="geometry">
            <mxPoint x="340" y="580" as="sourcePoint" />
            <mxPoint x="460" y="450" as="targetPoint" />
          </mxGeometry>
        </mxCell>
        <mxCell id="c1ZkTXCwSlhEwt3JloGz-95" value="" style="edgeStyle=orthogonalEdgeStyle;rounded=0;orthogonalLoop=1;jettySize=auto;html=1;" edge="1" parent="1" source="c1ZkTXCwSlhEwt3JloGz-90" target="c1ZkTXCwSlhEwt3JloGz-93">
          <mxGeometry relative="1" as="geometry" />
        </mxCell>
        <mxCell id="c1ZkTXCwSlhEwt3JloGz-90" value="" style="whiteSpace=wrap;html=1;aspect=fixed;fillColor=#FF0000;" vertex="1" parent="1">
          <mxGeometry x="20" y="270" width="20" height="20" as="geometry" />
        </mxCell>
        <mxCell id="c1ZkTXCwSlhEwt3JloGz-96" value="" style="edgeStyle=orthogonalEdgeStyle;rounded=0;orthogonalLoop=1;jettySize=auto;html=1;" edge="1" parent="1" source="c1ZkTXCwSlhEwt3JloGz-91" target="c1ZkTXCwSlhEwt3JloGz-94">
          <mxGeometry relative="1" as="geometry" />
        </mxCell>
        <mxCell id="c1ZkTXCwSlhEwt3JloGz-91" value="" style="whiteSpace=wrap;html=1;aspect=fixed;fillColor=#FF0000;" vertex="1" parent="1">
          <mxGeometry x="20" y="310" width="20" height="20" as="geometry" />
        </mxCell>
        <mxCell id="c1ZkTXCwSlhEwt3JloGz-93" value="" style="whiteSpace=wrap;html=1;aspect=fixed;fillColor=#FF0000;" vertex="1" parent="1">
          <mxGeometry x="100" y="290" width="20" height="20" as="geometry" />
        </mxCell>
        <mxCell id="c1ZkTXCwSlhEwt3JloGz-94" value="" style="whiteSpace=wrap;html=1;aspect=fixed;fillColor=#FF0000;" vertex="1" parent="1">
          <mxGeometry x="100" y="330" width="20" height="20" as="geometry" />
        </mxCell>
      </root>
    </mxGraphModel>
  </diagram>
</mxfile>
